<?xml version="1.0" encoding="UTF-8"?>
<svg version="1.1" xmlns="http://www.w3.org/2000/svg" width="16" height="16">
<path d="M0 0 C1.9375 0.6875 1.9375 0.6875 4 2 C4.75 4.625 4.75 4.625 5 7 C4.34 7 3.68 7 3 7 C3 7.66 3 8.32 3 9 C2.071875 9.12375 2.071875 9.12375 1.125 9.25 C-1.18437567 9.81258459 -1.18437567 9.81258459 -2.25 12.0625 C-2.4975 12.701875 -2.745 13.34125 -3 14 C-3.99 14 -4.98 14 -6 14 C-6.33 14.66 -6.66 15.32 -7 16 C-8.32 15.67 -9.64 15.34 -11 15 C-10.34728122 10.92050765 -8.49972491 7.2587173 -6 4 C-3.3125 2.6875 -3.3125 2.6875 -1 2 C-0.67 1.34 -0.34 0.68 0 0 Z " fill="#000000" transform="translate(11,0)"/>
</svg>
